<?xml version="1.0" encoding="UTF-8" standalone="no"?>
<!-- Created with Inkscape (http://www.inkscape.org/) -->

<svg
   width="149.51385mm"
   height="164.71378mm"
   viewBox="0 0 149.51385 164.71378"
   version="1.1"
   id="svg10173"
   inkscape:version="1.2.2 (b0a8486541, 2022-12-01)"
   sodipodi:docname="anyterial_logo_flat_white.svg"
   inkscape:export-filename="anyterial_logo_flat_white_large.png"
   inkscape:export-xdpi="360"
   inkscape:export-ydpi="360"
   xmlns:inkscape="http://www.inkscape.org/namespaces/inkscape"
   xmlns:sodipodi="http://sodipodi.sourceforge.net/DTD/sodipodi-0.dtd"
   xmlns="http://www.w3.org/2000/svg"
   xmlns:svg="http://www.w3.org/2000/svg">
  <sodipodi:namedview
     id="namedview10175"
     pagecolor="#ffffff"
     bordercolor="#666666"
     borderopacity="1.0"
     inkscape:showpageshadow="2"
     inkscape:pageopacity="0.0"
     inkscape:pagecheckerboard="0"
     inkscape:deskcolor="#d1d1d1"
     inkscape:document-units="mm"
     showgrid="false"
     inkscape:zoom="0.914906"
     inkscape:cx="187.99746"
     inkscape:cy="552.51578"
     inkscape:window-width="1499"
     inkscape:window-height="1236"
     inkscape:window-x="1277"
     inkscape:window-y="103"
     inkscape:window-maximized="0"
     inkscape:current-layer="layer1" />
  <defs
     id="defs10170" />
  <g
     inkscape:label="Layer 1"
     inkscape:groupmode="layer"
     id="layer1"
     transform="translate(-2.8228499,-3.0099151)">
    <path
       id="path1711-3-6-0-0-7-6"
       style="fill:#ffffff;stroke-width:0.24527"
       d="m 77.809714,6.7538444 c -8.0773,0 -14.657352,6.5966946 -14.657352,14.6940036 0,0.436134 0.02278,0.866916 0.06018,1.293552 -2.458779,1.313368 -4.696142,2.502144 -7.125397,3.79813 -1.830262,-1.490218 -4.160192,-2.386024 -6.694267,-2.386024 -5.863562,0 -10.640194,4.78881 -10.640194,10.666875 0,0.315569 0.01645,0.627088 0.04341,0.935803 -2.745088,1.460915 -5.653591,3.016932 -8.342991,4.447008 -2.558232,-2.180656 -5.866833,-3.501305 -9.47708,-3.501305 -8.077273,0 -14.6576474,6.59668 -14.6576474,14.694005 0,6.101788 3.7374134,11.349842 9.0354784,13.566716 -0.02758,3.653617 -0.04941,7.275749 -0.07189,10.965204 -4.261645,1.392704 -7.354115,5.414091 -7.354115,10.142851 0,4.70796 3.065514,8.714346 7.29814,10.123937 0.0042,3.793535 0.01331,7.57673 0.04162,11.37188 -5.25261,2.2374 -8.9492589,7.46303 -8.9492589,13.5319 0,8.09732 6.5800389,14.69401 14.6573559,14.69401 3.850142,0 7.358276,-1.50096 9.977639,-3.94668 2.354009,1.22629 6.498427,3.3924 7.993913,4.16816 -0.126154,0.65521 -0.194596,1.33094 -0.194596,2.02228 0,5.87808 4.776631,10.6666 10.640193,10.6666 3.005629,0 5.723738,-1.26007 7.661286,-3.27833 0.653241,0.3392 4.447632,2.33502 6.123061,3.21438 -0.01533,0.27448 -0.02487,0.55043 -0.02487,0.82867 0,8.09732 6.580053,14.694 14.657355,14.694 8.077272,0 14.657661,-6.59668 14.657661,-14.694 0,-0.22897 -0.0069,-0.45634 -0.01737,-0.6828 2.021442,-1.06499 4.023844,-2.12336 6.055095,-3.18767 1.925147,1.91787 4.574917,3.10575 7.494547,3.10575 5.86354,0 10.6402,-4.78852 10.6402,-10.6666 0,-0.65688 -0.0625,-1.2993 -0.17664,-1.92382 2.62594,-1.39778 5.29793,-2.80425 7.83313,-4.1859 2.60993,2.39874 6.08461,3.86596 9.89293,3.86596 8.07725,0 14.65762,-6.59669 14.65762,-14.69401 0,-6.34361 -4.03942,-11.76516 -9.67254,-13.81641 -0.0153,-3.57652 -0.0255,-7.13749 -0.0309,-10.743422 3.79373,-1.632788 6.46047,-5.415465 6.46047,-9.807003 0,-4.401093 -2.67812,-8.191144 -6.48501,-9.818111 -0.002,-3.938836 -0.006,-7.874287 -0.0175,-11.676206 5.67097,-2.030987 9.74561,-7.470525 9.74561,-13.841336 0,-8.097311 -6.58038,-14.694005 -14.65765,-14.694005 -3.7446,0 -7.16599,1.419332 -9.76059,3.747109 -2.61755,-1.508874 -5.23189,-2.972596 -7.85438,-4.457512 0.0422,-0.384901 0.0655,-0.775168 0.0655,-1.171103 0,-5.878065 -4.77666,-10.666875 -10.6402,-10.666875 -2.48697,0 -4.77662,0.863728 -6.590999,2.304391 -2.332993,-1.270063 -4.689377,-2.576661 -6.994259,-3.810734 0.03215,-0.396028 0.05299,-0.795176 0.05299,-1.199315 0,-8.097309 -6.580373,-14.6940036 -14.65766,-14.6940036 z M 66.070784,30.233214 c 2.676355,3.583579 6.943723,5.908635 11.73893,5.908635 4.691802,0 8.875431,-2.228391 11.560814,-5.681137 1.868169,0.988532 5.39103,2.859956 6.052091,3.205673 -0.04096,0.379265 -0.06349,0.764068 -0.06349,1.153996 0,5.878099 4.776941,10.666875 10.640501,10.666875 2.62143,0 5.02381,-0.959249 6.88111,-2.542991 0.74434,0.394291 4.80243,2.560168 7.36608,3.928086 -0.46206,1.426156 -0.71492,2.945717 -0.71492,4.523541 0,1.078363 0.11989,2.128959 0.34129,3.142045 -2.46466,1.223504 -4.76998,2.371135 -7.02509,3.504606 -1.85274,-1.566963 -4.24255,-2.514482 -6.84847,-2.514482 -3.75016,0 -7.015047,1.983146 -8.904354,4.93592 l -9.528865,-21.79385 -20.400776,-0.08913 -0.445784,1.032741 -8.772316,20.334621 c -1.931796,-2.662807 -5.028937,-4.419998 -8.55526,-4.419998 -3.034109,0 -5.774981,1.284363 -7.715791,3.33623 -2.146004,-1.156887 -4.331336,-2.305012 -6.596071,-3.485395 0.3572,-1.267788 0.552655,-2.60278 0.552655,-3.983008 0,-1.533814 -0.237133,-3.013498 -0.674809,-4.404989 2.307119,-1.24695 6.950361,-3.749599 7.529856,-4.066444 1.860385,1.595526 4.271814,2.562801 6.90416,2.562801 5.863517,0 10.640485,-4.788792 10.640485,-10.666875 0,-0.440099 -0.03002,-0.873227 -0.08203,-1.299559 0.793099,-0.42693 4.028654,-2.164758 6.119458,-3.287608 z m 3.324692,11.766249 15.944401,0.06993 32.574453,74.501577 -18.175462,-0.17018 -4.794073,-10.68189 -35.37368,0.021 -4.853657,10.89137 -17.516195,-0.006 z m 54.683804,20.016781 c 2.00093,1.915246 4.53794,3.269922 7.36011,3.810135 0.0259,3.655954 0.053,7.120866 0.0689,10.819939 -4.17386,1.442937 -7.18465,5.419394 -7.18465,10.085227 0,4.695473 3.04911,8.692943 7.2643,10.112537 0.0121,3.381118 0.0225,6.941888 0.041,9.789888 -3.49144,0.62045 -6.56266,2.48137 -8.7361,5.11541 -1.59092,-0.90614 -3.00639,-1.68216 -4.46205,-2.48837 L 104.18805,76.686237 c 0.58854,0.108507 1.19128,0.175572 1.81158,0.175572 5.86354,0 10.64021,-4.788789 10.64021,-10.666871 0,-0.08344 -0.004,-0.165814 -0.006,-0.248807 1.76272,-0.923653 4.46705,-2.353153 7.44574,-3.929887 z m -46.768633,0.429185 -1.531063,3.645964 -10.380331,24.715597 24.453573,0.166272 z m -46.812938,0.104447 c 2.623654,1.392091 6.944381,3.689454 8.283716,4.396885 0.386818,5.52891 4.99957,9.915352 10.610855,9.915352 0.446522,0 0.877499,-0.05721 1.30802,-0.114948 L 37.16714,108.11752 c -1.75702,0.94514 -3.466187,1.85451 -5.466796,2.98389 -2.226875,-2.39896 -5.240244,-4.05305 -8.623829,-4.54305 -0.03417,-4.15861 -0.08035,-9.867348 -0.0853,-10.791137 3.663211,-1.687807 6.216753,-5.399734 6.216753,-9.696262 0,-4.345668 -2.612157,-8.093545 -6.342792,-9.75358 0,-0.952299 -0.032,-6.366066 -0.05265,-10.346638 2.911921,-0.36752 5.560427,-1.594779 7.685243,-3.420867 z m 46.884493,8.51045 7.240345,16.468363 -14.116654,-0.09575 z m 15.364202,38.068634 4.784492,10.66029 22.068064,0.20647 c -0.0286,0.36598 -0.0671,0.72945 -0.0671,1.10266 0,1.2402 0.15594,2.44471 0.44638,3.59615 -2.54238,1.41574 -7.49963,4.16576 -8.06366,4.48154 -1.69305,-1.14019 -3.72823,-1.80678 -5.91498,-1.80678 -5.86356,0 -10.640492,4.78878 -10.640492,10.66686 0,0.0652 0.0039,0.12973 0.005,0.19478 -1.242043,0.67472 -3.70553,2.01943 -5.44793,2.96828 -1.995213,-2.92527 -5.015755,-5.09449 -8.537297,-5.98247 -0.07401,-7.5263 -0.144074,-14.74991 -0.148197,-15.77925 3.585156,-1.71828 6.070361,-5.39046 6.070361,-9.62993 0,-0.22922 -0.02852,-0.45072 -0.04582,-0.67529 z m -26.679804,0.0159 c -0.01718,0.2204 -0.04613,0.43757 -0.04613,0.6627 0,4.77888 3.157382,8.83755 7.489145,10.18845 -0.0064,5.12645 0.0107,10.26683 0.06289,15.4071 -3.183501,0.96701 -5.911987,2.99332 -7.778059,5.66763 -1.913052,-1.00527 -3.832295,-2.00642 -5.76169,-3.01478 1.5e-5,-0.007 0,-0.0133 0,-0.0198 0,-5.87807 -4.776966,-10.66685 -10.640485,-10.66685 -2.288755,0 -4.410092,0.73202 -6.148199,1.97123 -2.776114,-1.43476 -5.450213,-2.81331 -8.175635,-4.21739 0.364806,-1.28017 0.564337,-2.62935 0.564337,-4.02474 0,-0.35859 -0.0217,-0.71199 -0.0479,-1.06395 l 21.337564,0.007 4.854238,-10.89346 z" />
  </g>
</svg>
